<?xml version="1.0" standalone="no"?>
<!DOCTYPE svg PUBLIC "-//W3C//DTD SVG 20010904//EN"
 "http://www.w3.org/TR/2001/REC-SVG-20010904/DTD/svg10.dtd">
<svg version="1.0" xmlns="http://www.w3.org/2000/svg"
 width="260.000000pt" height="260.000000pt" viewBox="0 0 260.000000 260.000000"
 preserveAspectRatio="xMidYMid meet">
<metadata>
Created by potrace 1.11, written by Peter Selinger 2001-2013
</metadata>
<g transform="translate(0.000000,260.000000) scale(0.100000,-0.100000)"
fill="#000000" stroke="none">
<path d="M1168 2290 c-260 -31 -458 -182 -522 -399 -20 -68 -21 -236 -2 -308
56 -210 215 -329 531 -397 280 -61 330 -77 394 -132 96 -81 93 -226 -7 -316
-60 -55 -129 -71 -266 -66 -95 4 -120 9 -174 33 -118 53 -181 155 -190 306
l-5 89 -185 0 -185 0 6 -107 c12 -212 64 -340 187 -464 62 -63 92 -84 170
-122 136 -65 221 -82 410 -81 180 0 249 14 380 76 145 69 245 190 285 344 20
78 20 271 0 349 -34 130 -112 220 -252 292 -99 51 -176 76 -333 108 -302 61
-398 117 -408 239 -11 139 120 227 319 213 173 -12 276 -107 295 -275 l7 -62
178 0 179 0 0 85 c0 169 -50 297 -159 406 -111 110 -242 168 -423 188 -107 12
-131 12 -230 1z"/>
</g>
</svg>
